  <svg
          xmlns="http://www.w3.org/2000/svg"
          width="50"
          height="50"
          viewBox="0 0 48 48"
        >
          <g id="Group_3" data-name="Group 3" transform="translate(-312 -609)">
            <path
              id="Path_19674"
              data-name="Path 19674"
              d="M2383.649-2161.37v17.566h-.04v5.945a.453.453,0,0,1-.453.453h-.905a.453.453,0,0,1-.453-.453v-5.945h-3.378v-.223a33.531,33.531,0,0,1,1.122-8.634,27.671,27.671,0,0,1,2.865-6.506A23.86,23.86,0,0,1,2383.649-2161.37Z"
              transform="translate(-2050.22 2782.398)"
              fill="#fff"
            ></path>
            <path
              id="Path_19675"
              data-name="Path 19675"
              d="M2398.032-2160.947v8.148a.452.452,0,0,1-.453.452h-2.263v14.479a.452.452,0,0,1-.452.453h-.906a.453.453,0,0,1-.452-.453v-14.479h-2.263a.452.452,0,0,1-.453-.452v-8.148a.453.453,0,0,1,.452-.453h.453a.453.453,0,0,1,.452.453v7.25h1.587v-7.243a.453.453,0,0,1,.446-.453h.459a.446.446,0,0,1,.318.133.447.447,0,0,1,.128.32v7.243h1.588v-7.243a.453.453,0,0,1,.453-.453h.453A.452.452,0,0,1,2398.032-2160.947Z"
              transform="translate(-2054.232 2782.408)"
              fill="#fff"
            ></path>
          </g>
        </svg>